PathFileType	4	(X/Y/Z)	S1_rest_med_left.trc
DataRate	CameraRate	NumFrames	NumMarkers	Units	OrigDataRate	OrigDataStartFrame	OrigNumFrames
250.00	250.00	22	18	mm	250.00	11307	22613
Frame#	Time	c7	r_should	l_should	clavicle	r_upa	r_elb_l	r_elb_m	r_low	r_wri_l	r_wri_m	r_met	l_upa	l_elb_l	l_elb_m	l_low	l_wri_l	l_wri_m	l_met
	X1	Y1	Z1	X2	Y2	Z2	X3	Y3	Z3	X4	Y4	Z4	X5	Y5	Z5	X6	Y6	Z6	X7	Y7	Z7	X8	Y8	Z8	X9	Y9	Z9	X10	Y10	Z10	X11	Y11	Z11	X12	Y12	Z12	X13	Y13	Z13	X14	Y14	Z14	X15	Y15	Z15	X16	Y16	Z16	X17	Y17	Z17	X18	Y18	Z18
11307	45.22400	400.71527	1416.26257	26.07145	496.09262	1352.75879	198.53673	418.07111	1367.20959	-163.59872	544.11066	1305.71777	-6.44309	489.47318	1156.15454	270.46970	509.72693	1058.89294	282.37015	432.07907	1030.22180	224.60774	503.08578	925.65070	295.83463	596.19543	867.14044	243.52493	539.28265	832.58319	270.11307	651.42877	791.26086	242.93423	447.69904	1151.08386	-214.16931	468.11908	1091.18396	-231.35336	nan	nan	nan	580.44098	1008.11365	-225.51746	669.46936	1054.62927	-260.61154	690.22443	992.90106	-212.42264	nan	nan	nan
11308	45.22800	401.05551	1416.33655	25.86272	496.25458	1352.79993	198.42934	418.62042	1367.24121	-163.81897	544.46777	1305.40540	-6.16826	489.39502	1156.20984	270.40448	509.57990	1058.94312	282.35419	431.95755	1030.31433	224.54018	502.86340	925.71265	295.83676	595.96576	867.13531	243.60414	539.00793	832.62018	270.15363	651.14893	791.23273	243.06317	447.86365	1150.99976	-214.23787	468.16611	1090.86365	-231.40225	nan	nan	nan	580.01471	1006.84796	-225.58838	669.52448	1052.51025	-260.68243	690.01196	990.79431	-212.01709	nan	nan	nan
11309	45.23200	401.40497	1416.41064	25.66068	496.41614	1352.84937	198.31316	419.16074	1367.26501	-164.03635	544.75159	1305.27673	-6.14658	489.31903	1156.27222	270.35364	509.44101	1059.00500	282.34772	431.84299	1030.41553	224.45934	502.64572	925.77887	295.83578	595.73700	867.14001	243.68530	538.73206	832.66425	270.19312	650.86743	791.21429	243.20572	448.02820	1150.91748	-214.29422	468.22046	1090.55029	-231.42928	nan	nan	nan	579.57532	1005.58374	-225.64424	669.55103	1050.41113	-260.75485	689.52142	989.31555	-212.07056	nan	nan	nan
11310	45.23600	401.76190	1416.48145	25.45419	496.58917	1352.89233	198.19847	419.68512	1367.28748	-164.24590	545.11920	1305.15027	-6.05997	489.24530	1156.33472	270.29739	509.29315	1059.07166	282.33054	431.72891	1030.52771	224.38432	502.42520	925.84686	295.83163	595.51117	867.14795	243.77083	538.46075	832.70905	270.23251	650.59045	791.19781	243.34779	448.19159	1150.83142	-214.33659	468.28464	1090.25354	-231.44189	nan	nan	nan	579.12512	1004.29462	-225.68367	669.55414	1048.31775	-260.85483	688.92810	988.00909	-212.19160	nan	nan	nan
11311	45.24000	402.11487	1416.54504	25.24851	496.76917	1352.93604	198.07625	420.20773	1367.29688	-164.45570	545.58478	1305.01196	-5.86727	489.17538	1156.40515	270.23907	509.14096	1059.14136	282.31067	431.61627	1030.63196	224.30676	502.18188	925.93048	295.83362	595.28229	867.16364	243.86469	538.19080	832.75317	270.27246	650.31848	791.18488	243.50110	448.36047	1150.75061	-214.37019	468.37241	1089.96338	-231.43924	nan	nan	nan	578.66504	1003.00525	-225.69801	669.53516	1046.21863	-260.98441	688.33563	986.74963	-212.34671	nan	nan	nan
11312	45.24400	402.45993	1416.62000	25.02428	496.95782	1352.98608	197.94849	420.71216	1367.30200	-164.66832	545.91785	1304.94958	-5.88218	489.11249	1156.49158	270.18353	508.99792	1059.21143	282.27960	431.50635	1030.72949	224.21280	501.93906	926.02136	295.83487	595.05249	867.18170	243.95459	537.92438	832.80127	270.31134	650.04529	791.17096	243.64972	448.52496	1150.67297	-214.40056	468.49506	1089.68665	-231.42804	nan	nan	nan	578.21979	1001.73425	-225.70244	669.49591	1044.13635	-261.11084	687.73260	985.53113	-212.49463	nan	nan	nan
11313	45.24800	402.79901	1416.69458	24.80888	497.14072	1353.04272	197.81850	421.20676	1367.29797	-164.85707	546.21100	1304.90247	-5.95119	489.04752	1156.57446	270.11801	508.85178	1059.29419	282.24936	431.39993	1030.83765	224.12134	501.69479	926.11377	295.84171	594.81897	867.20477	244.04475	537.65057	832.85541	270.34592	649.77234	791.15826	243.79842	448.68820	1150.59595	-214.43590	468.65302	1089.43677	-231.39612	nan	nan	nan	577.77795	1000.47089	-225.71495	669.44452	1042.06616	-261.21188	687.10126	984.35083	-212.63087	nan	nan	nan
11314	45.25200	403.14346	1416.77380	24.58368	497.31897	1353.09705	197.69203	421.67520	1367.29004	-165.05046	546.48932	1304.85303	-6.03000	488.97937	1156.66040	270.05341	508.70483	1059.37964	282.21414	431.29355	1030.94739	224.02762	501.45639	926.21240	295.84341	594.58087	867.23199	244.13794	537.37115	832.91510	270.38150	649.50568	791.15094	243.94899	448.85260	1150.51855	-214.47137	468.84601	1089.21863	-231.34499	nan	nan	nan	577.34210	999.23193	-225.71042	669.38440	1039.99707	-261.30695	686.48584	983.20990	-212.79745	nan	nan	nan
11315	45.25600	403.48889	1416.84363	24.37190	497.49640	1353.15247	197.57787	422.13721	1367.27686	-165.25595	546.76648	1304.81201	-6.11770	488.91653	1156.74072	269.99045	508.55994	1059.46228	282.18518	431.18256	1031.05725	223.94005	501.23477	926.31543	295.85037	594.34143	867.25616	244.22951	537.09125	832.98065	270.43182	649.23767	791.14337	244.10980	449.01807	1150.43457	-214.50211	469.04059	1088.97827	-231.30095	nan	nan	nan	576.92505	997.98932	-225.68835	669.31012	1037.89783	-261.39194	685.46680	981.46472	-213.30121	nan	nan	nan
11316	45.26000	403.82449	1416.90332	24.18431	497.67340	1353.20886	197.45650	422.60919	1367.26270	-165.44765	547.05133	1304.77576	-6.19027	488.87311	1156.81909	269.93362	508.41034	1059.54761	282.15747	431.07635	1031.17297	223.86424	501.01346	926.41504	295.85834	594.10339	867.27222	244.32956	536.80908	833.04651	270.49069	648.96106	791.13672	244.28140	449.18878	1150.34509	-214.52606	469.21530	1088.69922	-231.28696	468.35794	1040.97375	-140.05775	576.52515	996.75830	-225.66104	669.22211	1035.80237	-261.47327	683.96149	978.68060	-214.17732	nan	nan	nan
11317	45.26400	404.14755	1416.96179	23.99385	497.86078	1353.26379	197.33870	423.06857	1367.24585	-165.64035	547.33679	1304.73450	-6.26301	488.84763	1156.91162	269.87665	508.27371	1059.62695	282.13351	430.98206	1031.29199	223.78641	500.78607	926.51471	295.86148	593.87433	867.28491	244.43414	536.53619	833.10956	270.55472	648.68048	791.12695	244.45479	449.37820	1150.25757	-214.55290	469.35556	1088.36768	-231.30525	467.80219	1040.59265	-140.08276	576.12085	995.51404	-225.59387	669.13550	1033.69763	-261.54095	683.21179	976.51685	-214.27148	nan	nan	nan
11318	45.26800	404.45947	1417.00989	23.79978	498.04816	1353.32190	197.22495	423.52853	1367.22314	-165.83427	547.62494	1304.70728	-6.33337	488.82254	1157.00232	269.80161	508.15607	1059.69653	282.10461	430.89120	1031.41089	223.70010	500.56232	926.61395	295.87967	593.64392	867.29559	244.53333	536.26971	833.16479	270.61981	648.40234	791.11035	244.62866	449.57904	1150.16125	-214.59334	469.45764	1087.99377	-231.34744	466.64746	1039.86255	-140.15677	575.73810	994.30096	-225.55750	669.02478	1031.60730	-261.63184	682.64880	974.50171	-214.13640	nan	nan	nan
11319	45.27200	404.77859	1417.06360	23.58626	498.23389	1353.37524	197.10434	423.99130	1367.20520	-166.02057	547.91345	1304.68103	-6.41122	488.79962	1157.10193	269.72763	508.04794	1059.77466	282.07458	430.81076	1031.51929	223.61876	500.33868	926.70880	295.88782	593.41650	867.30768	244.63086	536.00189	833.21570	270.68295	648.12286	791.08521	244.79254	449.77881	1150.06250	-214.63370	469.52466	1087.59705	-231.41629	466.40579	1039.57886	-140.10817	575.34204	993.09790	-225.50595	668.89062	1029.53027	-261.70615	682.14404	972.48163	-213.90681	nan	nan	nan
11320	45.27600	405.10767	1417.11414	23.36569	498.41684	1353.43359	196.97549	424.46405	1367.17822	-166.21782	548.10773	1304.84070	-6.74009	488.77335	1157.19128	269.64227	507.94589	1059.84741	282.04144	430.73209	1031.63013	223.53893	500.12900	926.80127	295.89285	593.19354	867.32111	244.72523	535.73602	833.26294	270.74243	647.84180	791.05591	244.95309	449.97061	1149.95349	-214.67722	469.56006	1087.20679	-231.48859	466.31436	1039.39954	-140.06125	574.88654	991.88202	-225.45296	668.74323	1027.45361	-261.79898	681.60486	970.56342	-213.72694	nan	nan	nan
11321	45.28000	405.43744	1417.16565	23.15427	498.60117	1353.49573	196.84917	424.94092	1367.14868	-166.41084	548.28400	1305.04102	-7.12650	488.76382	1157.29724	269.56305	507.84976	1059.92468	282.02051	430.66031	1031.74829	223.45821	499.92633	926.90228	295.90250	592.98181	867.33032	244.81525	535.47449	833.31335	270.80136	647.56299	791.02313	245.12302	450.14563	1149.82349	-214.71497	469.59219	1086.82751	-231.51907	466.23654	1039.23340	-140.02832	574.88361	990.05920	-225.13080	668.42499	1025.59668	-261.35980	681.05353	968.61951	-213.52129	nan	nan	nan
11322	45.28400	405.75284	1417.21887	22.96165	498.78854	1353.56250	196.72157	425.40814	1367.12073	-166.59720	548.64667	1304.90088	-7.02044	488.75735	1157.38708	269.47406	507.76596	1060.01086	281.99573	430.59604	1031.87866	223.38876	499.73911	926.99457	295.90405	592.77875	867.33728	244.90012	535.21570	833.36768	270.86215	647.29071	790.98572	245.27669	450.30457	1149.68896	-214.75667	469.63617	1086.46375	-231.53102	466.16943	1039.06470	-139.97923	575.45068	987.49603	-224.41985	667.93884	1024.05261	-260.28467	680.49390	966.64728	-213.27657	nan	nan	nan
11323	45.28800	406.05042	1417.27307	22.77551	498.97427	1353.62256	196.58737	425.85880	1367.08569	-166.77431	548.75403	1305.21387	-7.55490	488.76154	1157.47144	269.38687	507.68686	1060.09827	281.95905	430.53857	1031.99866	223.32922	499.55783	927.07556	295.90109	592.58502	867.34485	244.98166	534.95892	833.41766	270.92780	647.02795	790.94446	245.42755	450.44858	1149.55103	-214.80145	469.69131	1086.14673	-231.56104	466.08957	1038.86157	-139.95102	575.17712	985.97778	-224.24153	667.58264	1022.25732	-260.28583	679.90021	964.69440	-213.09639	nan	nan	nan
11324	45.29200	406.35455	1417.32031	22.59540	499.15945	1353.68042	196.46159	426.29956	1367.05017	-166.94292	548.99976	1305.27759	-7.74955	488.76758	1157.56360	269.30939	507.62140	1060.17896	281.91739	430.48703	1032.12317	223.27676	499.38107	927.15613	295.90289	592.39099	867.34418	245.06828	534.71222	833.46179	271.00522	646.76508	790.89270	245.57845	450.58371	1149.42261	-214.83055	469.76889	1085.84656	-231.58916	466.02231	1038.63306	-139.92075	574.67975	984.70996	-224.18910	667.28625	1020.35999	-260.47903	679.30530	962.73962	-212.86159	nan	nan	nan
11325	45.29600	406.66650	1417.35999	22.40566	499.35245	1353.73572	196.33949	426.74643	1367.02051	-167.12503	549.27435	1305.27844	-7.85363	488.77344	1157.64075	269.24109	507.55997	1060.25647	281.88168	430.42981	1032.24304	223.22057	499.21591	927.22943	295.91913	592.18762	867.32715	245.15825	534.46698	833.50500	271.08865	646.49982	790.83063	245.72572	450.71820	1149.29468	-214.84749	469.87033	1085.53503	-231.61284	465.96045	1038.42419	-139.90379	574.13489	983.50714	-224.19246	667.09692	1018.26703	-260.53757	678.70135	960.74823	-212.61565	nan	nan	nan
11326	45.30000	406.96759	1417.39661	22.22102	499.54669	1353.78479	196.21352	427.19714	1366.98962	-167.31058	549.53992	1305.26233	-7.93637	488.78592	1157.71619	269.17841	507.50858	1060.32800	281.85852	430.37491	1032.36267	223.16422	499.04971	927.30927	295.93976	591.98102	867.30713	245.25261	534.22607	833.54645	271.17294	646.23798	790.76318	245.87282	450.86865	1149.16980	-214.85146	469.98425	1085.21179	-231.63689	465.96497	1038.24329	-139.85730	573.61243	982.36353	-224.22044	666.85706	1016.27472	-260.70044	678.06830	958.82019	-212.45187	nan	nan	nan
11327	45.30400	407.26434	1417.43091	22.04390	499.74283	1353.83875	196.09023	427.64749	1366.95605	-167.50462	549.80292	1305.24878	-8.01704	488.80054	1157.80103	269.12753	507.45892	1060.39954	281.83585	430.32788	1032.48450	223.11955	498.88330	927.40094	295.96902	591.77905	867.29077	245.34659	533.99255	833.59277	271.25778	645.97144	790.69745	246.02368	451.04568	1149.03723	-214.84839	470.10144	1084.87915	-231.65033	465.92676	1038.06470	-139.83807	573.14105	981.29504	-224.19566	666.57489	1014.32300	-260.92709	677.42389	956.89728	-212.29619	nan	nan	nan
11328	45.30800	407.55319	1417.47180	21.86319	499.93466	1353.89404	195.96747	428.08365	1366.91736	-167.69609	550.07983	1305.24060	-8.09832	488.82510	1157.88147	269.07364	507.42114	1060.47546	281.81152	430.27469	1032.60803	223.09065	498.72375	927.48773	296.00330	591.58362	867.27081	245.43584	533.76129	833.64331	271.34488	645.69781	790.63214	246.16116	451.24774	1148.89551	-214.84256	470.21927	1084.55225	-231.67076	465.88730	1037.87732	-139.82254	571.95129	980.77332	-223.82886	666.34509	1012.44519	-260.91745	676.78156	954.92566	-212.13255	nan	nan	nan
